<svg width="25" height="24" viewBox="0 0 25 24" fill="none" xmlns="http://www.w3.org/2000/svg">
<path opacity="0.12" d="M8.16669 22C11.4804 22 14.1667 19.3137 14.1667 16C14.1667 12.6863 11.4804 10 8.16669 10C4.85298 10 2.16669 12.6863 2.16669 16C2.16669 19.3137 4.85298 22 8.16669 22Z" fill="#434A51"/>
<path d="M6.16669 6L8.16669 4M8.16669 4L6.16669 2M8.16669 4H6.16669C3.95755 4 2.16669 5.79086 2.16669 8M18.1667 18L16.1667 20M16.1667 20L18.1667 22M16.1667 20H18.1667C20.3758 20 22.1667 18.2091 22.1667 16M10.3557 6.5C11.0218 3.91216 13.3709 2 16.1667 2C19.4804 2 22.1667 4.68629 22.1667 8C22.1667 10.7957 20.2546 13.1449 17.6667 13.811M14.1667 16C14.1667 19.3137 11.4804 22 8.16669 22C4.85298 22 2.16669 19.3137 2.16669 16C2.16669 12.6863 4.85298 10 8.16669 10C11.4804 10 14.1667 12.6863 14.1667 16Z" stroke="#434A51" stroke-linecap="round" stroke-linejoin="round"/>
</svg>
