<svg width="20" height="20" viewBox="0 0 20 20" fill="none" xmlns="http://www.w3.org/2000/svg">
<path d="M4.16667 7.5V14.1667M7.91667 7.5V14.1667M12.0833 7.5V14.1667M15.8333 7.5V14.1667M2.5 15.5L2.5 16.1667C2.5 16.6334 2.5 16.8667 2.59083 17.045C2.67072 17.2018 2.79821 17.3293 2.95501 17.4092C3.13327 17.5 3.36662 17.5 3.83333 17.5H16.1667C16.6334 17.5 16.8667 17.5 17.045 17.4092C17.2018 17.3293 17.3293 17.2018 17.4092 17.045C17.5 16.8667 17.5 16.6334 17.5 16.1667V15.5C17.5 15.0333 17.5 14.7999 17.4092 14.6217C17.3293 14.4649 17.2018 14.3374 17.045 14.2575C16.8667 14.1667 16.6334 14.1667 16.1667 14.1667H3.83333C3.36662 14.1667 3.13327 14.1667 2.95501 14.2575C2.79821 14.3374 2.67072 14.4649 2.59083 14.6217C2.5 14.7999 2.5 15.0333 2.5 15.5ZM9.71076 2.56427L3.54409 3.93464C3.17154 4.01743 2.98527 4.05883 2.84622 4.159C2.72358 4.24736 2.62727 4.36741 2.56762 4.5063C2.5 4.66377 2.5 4.85459 2.5 5.23623L2.5 6.16666C2.5 6.63337 2.5 6.86673 2.59083 7.04499C2.67072 7.20179 2.79821 7.32927 2.95501 7.40917C3.13327 7.5 3.36662 7.5 3.83333 7.5H16.1667C16.6334 7.5 16.8667 7.5 17.045 7.40917C17.2018 7.32927 17.3293 7.20179 17.4092 7.04499C17.5 6.86673 17.5 6.63337 17.5 6.16666V5.23623C17.5 4.85459 17.5 4.66377 17.4324 4.5063C17.3727 4.36741 17.2764 4.24736 17.1538 4.159C17.0147 4.05883 16.8285 4.01743 16.4559 3.93464L10.2892 2.56427C10.1813 2.54029 10.1273 2.52829 10.0728 2.52351C10.0244 2.51926 9.97564 2.51926 9.9272 2.52351C9.87267 2.52829 9.8187 2.54029 9.71076 2.56427Z" stroke="black" stroke-linecap="round" stroke-linejoin="round"/>
</svg>
