<svg width="16" height="16" viewBox="0 0 16 16" fill="none" xmlns="http://www.w3.org/2000/svg">
<g clip-path="url(#clip0_136_149)">
<path d="M9.01964 5.56792C8.63803 5.83998 8.17103 6.00001 7.66665 6.00001C6.37798 6.00001 5.33331 4.95534 5.33331 3.66668C5.33331 2.37801 6.37798 1.33334 7.66665 1.33334C8.50197 1.33334 9.23478 1.77229 9.64698 2.4321M3.99998 13.3914H5.74017C5.96706 13.3914 6.19257 13.4184 6.41252 13.4724L8.25124 13.9193C8.65021 14.0165 9.06583 14.0259 9.46896 13.9476L11.502 13.5521C12.039 13.4475 12.533 13.1903 12.9202 12.8137L14.3586 11.4145C14.7693 11.0156 14.7693 10.3683 14.3586 9.96872C13.9887 9.60897 13.4031 9.56847 12.9847 9.87355L11.3084 11.0966C11.0683 11.2721 10.7762 11.3666 10.4757 11.3666H8.85698L9.88736 11.3665C10.4681 11.3665 10.9386 10.9089 10.9386 10.344V10.1394C10.9386 9.67034 10.6104 9.26132 10.1427 9.14792L8.55238 8.76117C8.29357 8.6984 8.02851 8.66668 7.76207 8.66668C7.11887 8.66668 5.95458 9.19922 5.95458 9.19922L3.99998 10.0166M13.3333 4.33334C13.3333 5.62201 12.2886 6.66668 11 6.66668C9.71132 6.66668 8.66665 5.62201 8.66665 4.33334C8.66665 3.04468 9.71132 2.00001 11 2.00001C12.2886 2.00001 13.3333 3.04468 13.3333 4.33334ZM1.33331 9.73334L1.33331 13.6C1.33331 13.9734 1.33331 14.1601 1.40598 14.3027C1.46989 14.4281 1.57188 14.5301 1.69732 14.594C1.83993 14.6667 2.02661 14.6667 2.39998 14.6667H2.93331C3.30668 14.6667 3.49337 14.6667 3.63597 14.594C3.76141 14.5301 3.8634 14.4281 3.92732 14.3027C3.99998 14.1601 3.99998 13.9734 3.99998 13.6V9.73334C3.99998 9.35998 3.99998 9.17329 3.92732 9.03068C3.8634 8.90524 3.76141 8.80326 3.63597 8.73934C3.49337 8.66668 3.30668 8.66668 2.93331 8.66668L2.39998 8.66668C2.02661 8.66668 1.83993 8.66668 1.69732 8.73934C1.57188 8.80325 1.46989 8.90524 1.40598 9.03068C1.33331 9.17329 1.33331 9.35998 1.33331 9.73334Z" stroke="#006AE0" stroke-linecap="round" stroke-linejoin="round"/>
</g>
<defs>
<clipPath id="clip0_136_149">
<rect width="16" height="16" fill="white"/>
</clipPath>
</defs>
</svg>
