<svg width="20" height="20" viewBox="0 0 20 20" fill="none" xmlns="http://www.w3.org/2000/svg">
<path d="M14.1667 7.91666V10.75C14.1667 11.2167 14.1667 11.4501 14.0758 11.6283C13.9959 11.7851 13.8685 11.9126 13.7117 11.9925C13.5334 12.0833 13.3 12.0833 12.8333 12.0833L2.5 12.0833M10.8333 12.0833V14.9167C10.8333 15.3834 10.8333 15.6167 10.7425 15.795C10.6626 15.9518 10.5351 16.0793 10.3783 16.1592C10.2001 16.25 9.96671 16.25 9.5 16.25H2.5M2.5 1.66666L2.5 18.3333M2.5 7.91666L16.1667 7.91666C16.6334 7.91666 16.8667 7.91666 17.045 7.82584C17.2018 7.74594 17.3293 7.61846 17.4092 7.46166C17.5 7.2834 17.5 7.05004 17.5 6.58333V5.08333C17.5 4.61662 17.5 4.38327 17.4092 4.20501C17.3293 4.0482 17.2018 3.92072 17.045 3.84083C16.8667 3.75 16.6334 3.75 16.1667 3.75L2.5 3.75L2.5 7.91666Z" stroke="black" stroke-linecap="round" stroke-linejoin="round"/>
</svg>
