<svg width="36" height="36" viewBox="0 0 36 36" fill="none" xmlns="http://www.w3.org/2000/svg">
<rect x="0.25" y="0.25" width="35.5" height="35.5" rx="17.75" stroke="#DADCE0" stroke-width="0.5"/>
<path d="M16.9525 12.2436C17.2911 12.1935 17.6405 12.1667 18.0003 12.1667C22.2545 12.1667 25.0461 15.9207 25.9839 17.4057C26.0974 17.5854 26.1542 17.6753 26.1859 17.8139C26.2098 17.918 26.2098 18.0822 26.1859 18.1863C26.1541 18.3249 26.097 18.4154 25.9827 18.5963C25.7328 18.9918 25.3518 19.5476 24.8471 20.1504M13.6036 13.5959C11.8019 14.8181 10.5787 16.5161 10.0176 17.4044C9.90357 17.5849 9.84656 17.6751 9.81478 17.8137C9.79091 17.9178 9.7909 18.082 9.81476 18.1861C9.84652 18.3247 9.90328 18.4146 10.0168 18.5943C10.9546 20.0793 13.7462 23.8333 18.0003 23.8333C19.7157 23.8333 21.1932 23.223 22.4073 22.3972M10.5003 10.5L25.5003 25.5M16.2326 16.2322C15.7802 16.6846 15.5003 17.3096 15.5003 18C15.5003 19.3807 16.6196 20.5 18.0003 20.5C18.6907 20.5 19.3157 20.2202 19.7681 19.7678" stroke="#434A51" stroke-width="1.5" stroke-linecap="round" stroke-linejoin="round"/>
</svg>
