<svg width="20" height="20" viewBox="0 0 20 20" fill="none" xmlns="http://www.w3.org/2000/svg">
<path d="M18.3334 7.08333H1.66669M1.66669 10.4167H4.62225C5.07241 10.4167 5.29749 10.4167 5.51513 10.4555C5.70831 10.4899 5.89677 10.547 6.07661 10.6255C6.27922 10.7139 6.4665 10.8388 6.84105 11.0885L7.32566 11.4115C7.70021 11.6612 7.88749 11.7861 8.0901 11.8745C8.26994 11.953 8.45839 12.0101 8.65157 12.0445C8.86922 12.0833 9.0943 12.0833 9.54446 12.0833H10.4556C10.9057 12.0833 11.1308 12.0833 11.3485 12.0445C11.5416 12.0101 11.7301 11.953 11.9099 11.8745C12.1126 11.7861 12.2998 11.6612 12.6744 11.4115L13.159 11.0885C13.5335 10.8388 13.7208 10.7139 13.9234 10.6255C14.1033 10.547 14.2917 10.4899 14.4849 10.4555C14.7026 10.4167 14.9276 10.4167 15.3778 10.4167H18.3334M1.66669 5.99999L1.66669 14C1.66669 14.9334 1.66669 15.4001 1.84834 15.7566C2.00813 16.0702 2.2631 16.3252 2.5767 16.485C2.93322 16.6667 3.39993 16.6667 4.33335 16.6667L15.6667 16.6667C16.6001 16.6667 17.0668 16.6667 17.4233 16.485C17.7369 16.3252 17.9919 16.0702 18.1517 15.7566C18.3334 15.4001 18.3334 14.9334 18.3334 14V6C18.3334 5.06658 18.3334 4.59986 18.1517 4.24335C17.9919 3.92974 17.7369 3.67477 17.4233 3.51499C17.0668 3.33333 16.6001 3.33333 15.6667 3.33333L4.33335 3.33333C3.39993 3.33333 2.93322 3.33333 2.5767 3.51498C2.2631 3.67477 2.00813 3.92974 1.84834 4.24334C1.66669 4.59986 1.66669 5.06657 1.66669 5.99999Z" stroke="black" stroke-linecap="round" stroke-linejoin="round"/>
</svg>
