<svg width="20" height="20" viewBox="0 0 20 20" fill="none" xmlns="http://www.w3.org/2000/svg">
<path d="M13.3333 6.66666V3.75054C13.3333 3.05742 13.3333 2.71087 13.1873 2.49789C13.0598 2.31181 12.8622 2.18541 12.6398 2.14756C12.3852 2.10424 12.0706 2.24947 11.4413 2.53993L4.04918 5.95165C3.48792 6.2107 3.20729 6.34022 3.00175 6.54109C2.82005 6.71868 2.68135 6.93545 2.59625 7.17485C2.5 7.44565 2.5 7.75473 2.5 8.37288V12.5M13.75 12.0833H13.7583M2.5 9.33333L2.5 14.8333C2.5 15.7667 2.5 16.2335 2.68166 16.59C2.84144 16.9036 3.09641 17.1585 3.41002 17.3183C3.76654 17.5 4.23325 17.5 5.16667 17.5H14.8333C15.7668 17.5 16.2335 17.5 16.59 17.3183C16.9036 17.1585 17.1586 16.9036 17.3183 16.59C17.5 16.2335 17.5 15.7667 17.5 14.8333V9.33333C17.5 8.39991 17.5 7.9332 17.3183 7.57668C17.1586 7.26307 16.9036 7.00811 16.59 6.84832C16.2335 6.66666 15.7668 6.66666 14.8333 6.66666L5.16667 6.66666C4.23325 6.66666 3.76654 6.66666 3.41002 6.84832C3.09641 7.00811 2.84144 7.26307 2.68166 7.57668C2.5 7.9332 2.5 8.39991 2.5 9.33333ZM14.1667 12.0833C14.1667 12.3134 13.9801 12.5 13.75 12.5C13.5199 12.5 13.3333 12.3134 13.3333 12.0833C13.3333 11.8532 13.5199 11.6667 13.75 11.6667C13.9801 11.6667 14.1667 11.8532 14.1667 12.0833Z" stroke="black" stroke-linecap="round" stroke-linejoin="round"/>
</svg>
